<svg width="21" height="21" viewBox="0 0 21 21" fill="none" xmlns="http://www.w3.org/2000/svg">
<path d="M18.5959 9.42616L11.5875 2.42616C11.3921 2.23091 11.1358 2.13316 10.8797 2.13316C10.6237 2.13316 10.3673 2.23091 10.1719 2.42616L3.16353 9.42616C2.77256 9.81766 2.79209 10.4302 3.18305 10.8207C3.57502 11.2132 4.14795 11.2709 4.54016 10.8792L4.88207 10.5374V17.1332C4.88207 17.6859 5.32985 18.1332 5.88326 18.1332H9.88803V14.1332H11.8904V18.1332H15.8952C16.4486 18.1332 16.8964 17.6859 16.8964 17.1332V10.5569L17.1955 10.8557C17.5864 11.2462 18.1839 11.2112 18.5761 10.8204C18.9673 10.4302 18.9878 9.81666 18.5959 9.42616Z" fill="#484848"/>
</svg>
